<svg width="176" height="36" viewBox="0 0 176 36" fill="none" xmlns="http://www.w3.org/2000/svg">
<g clip-path="url(#clip0_9_1190)">
<path d="M2.13965 23.8402C2.13965 30.5532 7.35392 36 13.7904 36H25.6864V2.1275H2.13965M10.9981 4.9021H15.3917V9.31074H11.8233C11.3683 9.31074 10.9981 8.92435 10.9981 8.4495V4.90676V4.9021ZM9.48602 14.6877H7.35392C6.26557 14.6877 5.3824 13.7659 5.3824 12.63V10.6003H9.48602V14.6877ZM9.48602 9.31074H5.38686V4.9021H9.49048V9.31074H9.48602ZM10.9981 10.6003H15.3917V14.6877H10.9981V10.6003ZM23.4651 33.0764H18.8128C17.8494 33.0764 17.0733 32.2617 17.0733 31.2608V22.4482H23.4651V33.0811V33.0764Z" fill="#00953E"/>
<path d="M26.4802 2.43476L2.05475 3.19824C1.47935 3.21686 0.984239 2.78391 0.890569 2.19268L0.663086 0.712272L26.6631 0L26.4802 2.43476Z" fill="#00953E"/>
<path d="M0.95752 0.856602C0.95752 0.856602 1.35896 0.837981 2.06817 0.805393C2.77739 0.777461 3.78991 0.740218 5.00315 0.69832C6.2164 0.656421 7.63482 0.609868 9.15138 0.563314C10.6679 0.521415 12.2871 0.479517 13.9062 0.432963C15.5254 0.400376 17.1445 0.367788 18.6611 0.335201C20.1821 0.316579 21.5961 0.293302 22.8138 0.274681C24.027 0.26537 25.0395 0.256059 25.7487 0.251404C26.4579 0.251404 26.3732 0.251404 26.3732 0.251404C26.3732 0.251404 26.4579 0.26537 25.7487 0.297958C25.044 0.32589 24.0315 0.367788 22.8138 0.414342C21.6005 0.45624 20.1821 0.498139 18.6655 0.544692C17.149 0.581935 15.5298 0.628489 13.9107 0.670387C12.2915 0.702975 10.6679 0.735563 9.15584 0.763495C7.63482 0.786772 6.22086 0.805393 5.00315 0.824015C3.78991 0.833325 2.77739 0.842636 2.06817 0.847291C1.35896 0.851947 0.95752 0.851947 0.95752 0.851947V0.856602Z" fill="#00953E"/>
<path d="M2.23779 25.4556C2.23779 25.4556 2.69722 33.7887 12.1266 35.8789C10.3692 32.434 11.7118 25.9304 11.7118 25.9304L2.23779 25.4556Z" fill="#057C36"/>
</g>
<path d="M43.0656 8.35342V26.3256C42.901 26.3951 42.6542 26.4531 42.3251 26.4994C42.0195 26.5689 41.6903 26.6037 41.3377 26.6037C40.609 26.6037 40.0918 26.4762 39.7862 26.2213C39.4805 25.9432 39.3277 25.4913 39.3277 24.8656V8.35342H33.0862C32.9687 8.19119 32.8629 7.98262 32.7689 7.72769C32.6983 7.47277 32.6631 7.18308 32.6631 6.85863C32.6631 6.34878 32.7806 5.9664 33.0157 5.71147C33.2743 5.43337 33.6152 5.29432 34.0383 5.29432H49.3776C49.4717 5.43337 49.5539 5.63036 49.6245 5.88528C49.7185 6.14021 49.7655 6.41831 49.7655 6.71958C49.7655 7.80881 49.3071 8.35342 48.3903 8.35342H43.0656Z" fill="#00953E"/>
<path d="M58.0883 24.066C58.9111 24.066 59.6281 23.9849 60.2394 23.8227C60.8506 23.6605 61.2855 23.4867 61.5441 23.3013V18.8864L57.7005 19.2688C56.6191 19.3847 55.808 19.628 55.2673 19.9988C54.7266 20.3465 54.4563 20.8911 54.4563 21.6327C54.4563 22.3974 54.7501 23 55.3378 23.4403C55.9256 23.8575 56.8424 24.066 58.0883 24.066ZM58.0178 9.63963C60.2041 9.63963 61.9437 10.1147 63.2367 11.0649C64.5297 11.9919 65.1761 13.4635 65.1761 15.4797V23.5794C65.1761 24.1124 65.0469 24.5295 64.7883 24.8308C64.5532 25.1089 64.2241 25.3754 63.8009 25.6304C63.1897 25.978 62.4021 26.2793 61.4383 26.5342C60.4745 26.7891 59.3578 26.9166 58.0883 26.9166C55.808 26.9166 54.0214 26.4762 52.7284 25.5956C51.4589 24.7149 50.8242 23.4171 50.8242 21.7022C50.8242 20.1727 51.3179 19.0023 52.3053 18.1912C53.3161 17.3801 54.7619 16.8818 56.6426 16.6964L61.5441 16.2097V15.445C61.5441 14.4253 61.2032 13.6837 60.5215 13.2202C59.8632 12.7567 58.9346 12.5249 57.7357 12.5249C56.7954 12.5249 55.8903 12.6524 55.0205 12.9073C54.1507 13.1622 53.3749 13.4519 52.6931 13.7764C52.4581 13.591 52.2582 13.3708 52.0937 13.1159C51.9291 12.8378 51.8468 12.5365 51.8468 12.2121C51.8468 11.8181 51.9409 11.4936 52.1289 11.2387C52.3405 10.9838 52.6579 10.7636 53.081 10.5782C53.7393 10.2538 54.4915 10.022 55.3378 9.88297C56.1842 9.72074 57.0775 9.63963 58.0178 9.63963Z" fill="#00953E"/>
<path d="M73.5596 26.3256C73.395 26.3951 73.1599 26.4531 72.8543 26.4994C72.5722 26.5689 72.2549 26.6037 71.9022 26.6037C71.2205 26.6037 70.7151 26.4762 70.3859 26.2213C70.0568 25.9664 69.8923 25.5377 69.8923 24.9351V13.533C69.8923 12.9536 70.0098 12.4901 70.2449 12.1425C70.48 11.7717 70.8561 11.4241 71.3733 11.0997C72.055 10.6825 72.9249 10.3349 73.9827 10.0568C75.0406 9.77868 76.2043 9.63963 77.4738 9.63963C79.5425 9.63963 80.5769 10.219 80.5769 11.3778C80.5769 11.6559 80.5299 11.9224 80.4358 12.1773C80.3418 12.409 80.236 12.6176 80.1185 12.803C79.8834 12.7567 79.5895 12.7103 79.2369 12.664C78.8843 12.6176 78.5081 12.5944 78.1085 12.5944C77.1681 12.5944 76.3101 12.6987 75.5343 12.9073C74.7585 13.0927 74.1003 13.336 73.5596 13.6373V26.3256Z" fill="#00953E"/>
<path d="M97.9942 32.7219C97.8296 32.7914 97.5945 32.8494 97.2889 32.8957C96.9833 32.9652 96.6542 33 96.3016 33C95.6198 33 95.1144 32.8725 94.7853 32.6176C94.4562 32.3627 94.2916 31.9224 94.2916 31.2966V26.0475C93.8214 26.2793 93.2807 26.4762 92.6695 26.6385C92.0583 26.8007 91.353 26.8818 90.5537 26.8818C89.3548 26.8818 88.2499 26.7196 87.239 26.3951C86.2517 26.0475 85.3936 25.5261 84.6649 24.8308C83.9361 24.1124 83.3601 23.2202 82.937 22.1541C82.5373 21.0649 82.3375 19.7903 82.3375 18.3302C82.3375 16.8702 82.5491 15.5956 82.9723 14.5064C83.4189 13.4171 84.0301 12.5133 84.8059 11.7949C85.5817 11.0765 86.4985 10.5435 87.5564 10.1958C88.6378 9.82503 89.8132 9.63963 91.0827 9.63963C92.2816 9.63963 93.363 9.79027 94.3269 10.0915C95.3142 10.3696 96.1135 10.6941 96.7247 11.0649C97.1244 11.3198 97.43 11.6095 97.6416 11.934C97.8766 12.2584 97.9942 12.664 97.9942 13.1506V32.7219ZM91.0827 23.927C91.7409 23.927 92.3404 23.8343 92.8811 23.6489C93.4453 23.4635 93.9272 23.2317 94.3269 22.9536V13.394C93.9742 13.1854 93.5276 13 92.9869 12.8378C92.4697 12.6524 91.8702 12.5597 91.1885 12.5597C90.4597 12.5597 89.7897 12.6755 89.1785 12.9073C88.5673 13.1159 88.0266 13.4519 87.5564 13.9154C87.1098 14.3789 86.7571 14.9815 86.4985 15.7231C86.2399 16.4415 86.1106 17.3105 86.1106 18.3302C86.1106 20.3001 86.5573 21.7254 87.4506 22.606C88.3439 23.4867 89.5546 23.927 91.0827 23.927Z" fill="#00953E"/>
<path d="M102.848 10.1611C103.012 10.1147 103.247 10.0684 103.553 10.022C103.859 9.95249 104.188 9.91773 104.54 9.91773C105.222 9.91773 105.716 10.0452 106.021 10.3001C106.351 10.555 106.515 10.9954 106.515 11.6211V20.2074C106.515 21.5516 106.868 22.5133 107.573 23.0927C108.302 23.6489 109.301 23.927 110.57 23.927C111.393 23.927 112.087 23.8459 112.651 23.6837C113.215 23.5214 113.662 23.3476 113.991 23.1622V10.1611C114.179 10.1147 114.414 10.0684 114.696 10.022C115.002 9.95249 115.331 9.91773 115.683 9.91773C116.365 9.91773 116.871 10.0452 117.2 10.3001C117.529 10.555 117.693 10.9954 117.693 11.6211V23.336C117.693 23.8459 117.611 24.263 117.447 24.5875C117.282 24.9119 116.953 25.2248 116.459 25.5261C115.848 25.8737 115.037 26.1866 114.026 26.4647C113.039 26.7428 111.875 26.8818 110.535 26.8818C108.114 26.8818 106.221 26.3604 104.858 25.3175C103.518 24.2514 102.848 22.5713 102.848 20.2769V10.1611Z" fill="#00953E"/>
<path d="M126.389 26.3256C126.224 26.3951 125.989 26.4531 125.684 26.4994C125.402 26.5689 125.072 26.6037 124.696 26.6037C124.015 26.6037 123.509 26.4762 123.18 26.2213C122.851 25.9664 122.686 25.5377 122.686 24.9351V10.2306C122.874 10.1842 123.11 10.1263 123.392 10.0568C123.697 9.98725 124.038 9.95249 124.414 9.95249C125.096 9.95249 125.59 10.08 125.895 10.3349C126.224 10.5898 126.389 11.0301 126.389 11.6559V26.3256ZM122.298 5.12051C122.298 4.51796 122.51 4.0197 122.933 3.62572C123.356 3.20857 123.897 3 124.555 3C125.214 3 125.742 3.20857 126.142 3.62572C126.542 4.0197 126.742 4.51796 126.742 5.12051C126.742 5.72306 126.542 6.23291 126.142 6.65006C125.742 7.04403 125.214 7.24102 124.555 7.24102C123.897 7.24102 123.356 7.04403 122.933 6.65006C122.51 6.23291 122.298 5.72306 122.298 5.12051Z" fill="#00953E"/>
<path d="M142.573 15.8621C142.573 14.7265 142.244 13.8922 141.586 13.3592C140.951 12.8262 140.081 12.5597 138.976 12.5597C138.153 12.5597 137.413 12.664 136.755 12.8725C136.12 13.0811 135.567 13.3129 135.097 13.5678V26.3256C134.933 26.3951 134.698 26.4531 134.392 26.4994C134.11 26.5689 133.792 26.6037 133.44 26.6037C132.758 26.6037 132.253 26.4762 131.924 26.2213C131.594 25.9664 131.43 25.5377 131.43 24.9351V13.4635C131.43 12.9305 131.536 12.5017 131.747 12.1773C131.959 11.8528 132.311 11.5284 132.805 11.2039C133.463 10.81 134.321 10.4508 135.379 10.1263C136.437 9.80185 137.636 9.63963 138.976 9.63963C141.256 9.63963 143.043 10.1495 144.336 11.1692C145.629 12.1657 146.275 13.6837 146.275 15.7231V26.3256C146.111 26.3951 145.876 26.4531 145.57 26.4994C145.265 26.5689 144.935 26.6037 144.583 26.6037C143.901 26.6037 143.396 26.4762 143.067 26.2213C142.737 25.9664 142.573 25.5377 142.573 24.9351V15.8621Z" fill="#00953E"/>
<path d="M154.971 26.3256C154.806 26.3951 154.571 26.4531 154.266 26.4994C153.984 26.5689 153.655 26.6037 153.278 26.6037C152.597 26.6037 152.091 26.4762 151.762 26.2213C151.433 25.9664 151.268 25.5377 151.268 24.9351V10.2306C151.457 10.1842 151.692 10.1263 151.974 10.0568C152.279 9.98725 152.62 9.95249 152.996 9.95249C153.678 9.95249 154.172 10.08 154.477 10.3349C154.806 10.5898 154.971 11.0301 154.971 11.6559V26.3256ZM150.881 5.12051C150.881 4.51796 151.092 4.0197 151.515 3.62572C151.938 3.20857 152.479 3 153.137 3C153.796 3 154.325 3.20857 154.724 3.62572C155.124 4.0197 155.324 4.51796 155.324 5.12051C155.324 5.72306 155.124 6.23291 154.724 6.65006C154.325 7.04403 153.796 7.24102 153.137 7.24102C152.479 7.24102 151.938 7.04403 151.515 6.65006C151.092 6.23291 150.881 5.72306 150.881 5.12051Z" fill="#00953E"/>
<path d="M175.845 18.2607C175.845 19.5817 175.645 20.7752 175.245 21.8412C174.846 22.9073 174.282 23.8111 173.553 24.5527C172.848 25.2943 171.978 25.8737 170.943 26.2908C169.909 26.6848 168.757 26.8818 167.488 26.8818C166.218 26.8818 165.066 26.6848 164.032 26.2908C162.998 25.8737 162.116 25.2943 161.387 24.5527C160.682 23.8111 160.13 22.9073 159.73 21.8412C159.33 20.7752 159.13 19.5817 159.13 18.2607C159.13 16.9397 159.33 15.7462 159.73 14.6802C160.13 13.6141 160.694 12.7103 161.422 11.9687C162.151 11.2271 163.033 10.6593 164.067 10.2654C165.102 9.8482 166.242 9.63963 167.488 9.63963C168.734 9.63963 169.874 9.8482 170.908 10.2654C171.943 10.6593 172.824 11.2387 173.553 12.0035C174.282 12.7451 174.846 13.6489 175.245 14.7149C175.645 15.7578 175.845 16.9397 175.845 18.2607ZM167.488 12.5597C166.077 12.5597 164.96 13.0579 164.138 14.0545C163.315 15.051 162.904 16.4531 162.904 18.2607C162.904 20.0684 163.303 21.4704 164.102 22.467C164.902 23.4403 166.03 23.927 167.488 23.927C168.945 23.927 170.074 23.4403 170.873 22.467C171.672 21.4704 172.072 20.0684 172.072 18.2607C172.072 16.4762 171.66 15.0857 170.838 14.0892C170.038 13.0695 168.922 12.5597 167.488 12.5597Z" fill="#00953E"/>
<defs>
<clipPath id="clip0_9_1190">
<rect width="26" height="36" fill="white" transform="translate(0.663086)"/>
</clipPath>
</defs>
</svg>
