<svg width="21" height="28" viewBox="0 0 21 28" fill="none" xmlns="http://www.w3.org/2000/svg">
<path d="M0.249268 18.2046C0.249268 23.6123 4.66135 28 10.1076 28H20.1734V0.713837H0.249268M7.74489 2.94893H11.4625V6.50034H8.44313C8.05815 6.50034 7.74489 6.18907 7.74489 5.80656V2.95268V2.94893ZM6.46543 10.8318H4.66135C3.74043 10.8318 2.99313 10.0892 2.99313 9.1742V7.53913H6.46543V10.8318ZM6.46543 6.50034H2.99691V2.94893H6.4692V6.50034H6.46543ZM7.74489 7.53913H11.4625V10.8318H7.74489V7.53913ZM18.2939 25.6449H14.3573C13.5421 25.6449 12.8854 24.9886 12.8854 24.1823V17.0833H18.2939V25.6487V25.6449Z" fill="#00953E"/>
</svg>
